<?xml version="1.0" encoding="UTF-8"?>
<svg width="22px" height="13px" viewBox="0 0 22 13" version="1.1" xmlns="http://www.w3.org/2000/svg"
     xmlns:xlink="http://www.w3.org/1999/xlink">
    <!-- Generator: Sketch 49.2 (51160) - http://www.bohemiancoding.com/sketch -->
    <title>iconAllyDownload-IC</title>
    <desc>Created with Sketch.</desc>
    <defs></defs>
    <g id="AAF-Triggers-–-Students" stroke="none" stroke-width="1" fill="none" fill-rule="evenodd">
        <g id="01_learnContentVariations-Students" transform="translate(-525.000000, -687.000000)" fill="#2D3B45">
            <g id="option02-a" transform="translate(284.141047, 682.000000)">
                <g id="iconAllyDownload-IC" transform="translate(240.998967, 4.966146)">
                    <path
                        d="M22,4.3875 L17.1875,11.7 L12.375,4.3875 L15.2625,4.3875 L15.2625,0 L19.1125,0 L19.1125,4.3875 L22,4.3875 Z M0,13 L7.56170223,2.6 L15.125,13 L11.5074634,13 C10.8377941,11.637446 9.34323244,10.6886103 7.60683311,10.6886103 C5.87043379,10.6886103 4.37564424,11.637446 3.70597488,13 L0,13 Z M5.76079766,8.21256906 C5.76079766,9.12421192 6.56722727,9.86326321 7.56170223,9.86326321 C8.55617719,9.86326321 9.36237887,9.12421192 9.36237887,8.21256906 C9.36237887,7.3009262 8.55617719,6.56187491 7.56170223,6.56187491 C6.56722727,6.56187491 5.76079766,7.3009262 5.76079766,8.21256906 Z"></path>
                </g>
            </g>
        </g>
    </g>
</svg>